<svg width="16" height="16" viewBox="0 0 16 16" fill="none" xmlns="http://www.w3.org/2000/svg">
<path fill-rule="evenodd" clip-rule="evenodd" d="M0.727922 0.585786C-0.0531268 1.36683 -0.0531264 2.63317 0.727922 3.41421L4.89952 7.58582L0.585786 11.8996C-0.195262 12.6806 -0.195262 13.9469 0.585786 14.728C1.36683 15.509 2.63317 15.509 3.41421 14.728L7.72795 10.4142L12.0416 14.7279C12.8227 15.509 14.089 15.509 14.8701 14.7279C15.6511 13.9469 15.6511 12.6805 14.8701 11.8995L10.5564 7.58582L14.7279 3.41427C15.509 2.63322 15.509 1.36689 14.7279 0.585844C13.9469 -0.195204 12.6805 -0.195204 11.8995 0.585845L7.72795 4.75739L3.55635 0.585786C2.7753 -0.195262 1.50897 -0.195262 0.727922 0.585786Z" fill="#FF0000"/>
</svg>
